# xmcd CD database file
#
# Track frame offsets:
#	150
#	17945
#	37462
#	55332
#	71145
#	89702
#	110017
#	126600
#	144552
#	163585
#	181867
#	199065
#	214910
#	233655
#	250990
#	267550
#	286190
#	304190
#	316310
#
# Disc length: 4372 seconds
#
# Revision: 7
# Processed by: cddbd v1.5.1PL0 Copyright (c) Steve Scherf et al.
# Submitted via: CdAid (MTCDDB.DLL V2003.12.21)
#
DISCID=33111213
DTITLE=Various Artist - The Love Album IV Disc Two
DYEAR=1997
DGENRE=Slow Rock
TTITLE0=Wet Wet Wet - Love Is All Around
TTITLE1=No Doubt - Don't Speak
TTITLE2=Spice Girls - 2 Become 1
TTITLE3=Backstreet Boys - As Long As You Love Me
TTITLE4=911 - The Day We Find love
TTITLE5=Eternal feat. Bebe Winans - I Wanna Be The Only One
TTITLE6=Brownstone - If You Love Me
TTITLE7=Gabrielle - Give Me A Little More Time
TTITLE8=Randy Crawford - You Might Need Somebody
TTITLE9=Marvin Gaye - (Sexual) Healing
TTITLE10=Luther Vandross - Never Too Much
TTITLE11=Aretha Franklin - I Say A Little Prayer
TTITLE12=Paul Young - Wherever I Lay My Hat
TTITLE13=Billy Ocean - Suddenly
TTITLE14=Gloria Estefan - Anything For You
TTITLE15=Damage - Wonderful Tonight
TTITLE16=Mary J Blige - Everything
TTITLE17=The Shirelles - Will You Love Me Tomorrow
TTITLE18=Danny Williams - Moon River
EXTD=ID3G:  13 YEAR: 1997
EXTT0=
EXTT1=
EXTT2=
EXTT3=
EXTT4=
EXTT5=
EXTT6=
EXTT7=
EXTT8=
EXTT9=
EXTT10=
EXTT11=
EXTT12=
EXTT13=
EXTT14=
EXTT15=
EXTT16=
EXTT17=
EXTT18=
PLAYORDER=
